<?xml version="1.0" ?><!DOCTYPE svg  PUBLIC '-//W3C//DTD SVG 1.1//EN'  'http://www.w3.org/Graphics/SVG/1.1/DTD/svg11.dtd'><svg enable-background="new 0 0 1024 1024" height="1024px" id="Layer_1" version="1.1" viewBox="0 0 1024 1024" width="1024px" xml:space="preserve" xmlns="http://www.w3.org/2000/svg" xmlns:xlink="http://www.w3.org/1999/xlink"><g><g><path clip-rule="evenodd" d="M52.998,986.946c-15.167-16.828-23.621-37.484-25.669-60.929     c-0.33-3.793-0.24-7.63-0.24-11.443C27.08,646.283,27.135,377.989,27,109.698c-0.015-27.858,7.955-52.373,25.616-72.421     C211.317,196.148,369.73,354.731,527.213,512.382C370.285,669.422,211.881,827.947,52.998,986.946z" fill-rule="evenodd"/><path clip-rule="evenodd" d="M99.112,1017.95C255.598,861.35,411.369,705.46,566.012,550.701     c55.082,55.066,110.814,110.78,166.613,166.562c-68.221,36.526-137.398,73.544-206.553,110.594     c-113.146,60.615-226.293,121.229-339.407,181.902C158.806,1024.703,130.055,1028.641,99.112,1017.95z" fill-rule="evenodd"/><path clip-rule="evenodd" d="M99.332,5.521c30.368-9.59,59.189-6.63,87.246,8.44     c124.809,67.035,249.744,133.832,374.633,200.714c53.713,28.769,107.428,57.537,161.135,86.32     c3.652,1.959,7.225,4.064,9.59,5.396c-55.623,55.669-111.168,111.262-166.021,166.165     C411.533,318.025,255.82,162.16,99.332,5.521z" fill-rule="evenodd"/><path clip-rule="evenodd" d="M603.432,512.635c60.139-60.114,119.197-119.145,178.807-178.73     c-0.418,0,0.447-0.264,1.012,0.038c54.094,28.918,108.998,56.436,162.023,87.2c68.537,39.76,69.102,140.729,0.889,180.851     c-51.85,30.496-105.779,57.45-158.949,85.667c-2.416,1.284-7.73,0.759-9.57-1.064     C719.449,628.813,661.521,570.764,603.432,512.635z" fill-rule="evenodd"/></g></g></svg>