<?xml version="1.0" encoding="utf-8"?>
<!-- Generated by IcoMoon.io -->
<!DOCTYPE svg PUBLIC "-//W3C//DTD SVG 1.1//EN" "http://www.w3.org/Graphics/SVG/1.1/DTD/svg11.dtd">
<svg version="1.1" xmlns="http://www.w3.org/2000/svg" xmlns:xlink="http://www.w3.org/1999/xlink" width="512" height="512" viewBox="0 0 512 512">
<g>
</g>
	<path d="M42.691 170.261c0-61.716 46.356-110.561 111.903-110.561 18.227 0 29.635 2.416 38.471 3.645 4.157 1.219 8.325 1.219 12.482 1.219l64.492-0.604c1.075 0 1.587 0.604 1.587 1.198 0 3.103-1.587 7.342-3.656 7.342l-48.363 7.353c16.138 14.653 24.965 40.929 24.965 64.727 0 60.477-40.048 95.908-93.635 105.063-6.768 1.239-16.138 3.072-25.487 7.342-20.838 6.717-40.080 16.497-40.080 25.026 0 11.008 38.502 17.122 73.871 22.599 67.645 9.165 109.281 20.798 109.281 65.382 0 50.688-55.685 89.784-139.417 89.784-63.468 0-109.261-20.142-109.261-58.644 0-28.058 21.35-41.543 80.087-77.599-16.128-4.25-32.225-10.353-40.571-15.237-6.215-3.676-9.871-10.404-9.871-23.204 0-4.905 1.075-6.738 4.157-8.571 19.742-9.144 40.571-18.934 56.719-26.256-35.369-6.113-67.666-36.014-67.666-79.431v-0.573zM141.589 448.809c44.728 0 83.722-24.474 84.265-59.914 0-39.68-43.714-48.22-104.581-59.218-6.789-1.219-10.404-1.219-16.138 2.437-18.176 12.841-40.059 32.993-40.059 62.3 0 34.202 32.256 54.395 75.961 54.395h0.553zM142.602 240.496c30.69 0 57.744-26.245 57.744-87.982 0-47.012-18.186-82.442-52.5-82.442-40.622 0-60.365 41.544-60.365 92.242 0 48.261 24.965 78.183 54.661 78.183h0.461z" fill="#FFF" />
	
<path d="M299.684 134.738h192.492v27.525h-192.491v-27.525z" fill="#FFF" />

	<path d="M382.167 52.224h27.515v192.532h-27.515v-192.532z" fill="#FFF" />
</svg>
