<svg class="svg-icon svg-icon-notification" viewBox="0 0 12 12" aria-hidden="true" height="18" width="18"><g><path d="M1,9.88888889 L2.20792938,9.2849242 C1.45506021,8.4152595 1,7.27369342 1,6 C1,3.17501322 3.23857625,1 6,1 C8.76142375,1 11,3.23857625 11,6 C11,8.76142375 8.76142375,11 6,11 C2.77909569,11 1,9.88888889 1,9.88888889 Z M6,5.06037445 L6,7.35721515 L5.99921222,7.35721515 L5.99921222,7.35721515 C5.99973585,7.36772446 6,7.37828354 6,7.38888889 C6,7.84912618 5.50253861,8.22222222 4.88888889,8.22222222 C4.27523917,8.22222222 3.77777778,7.84912618 3.77777778,7.38888889 C3.77777778,6.9286516 4.27523917,6.55555556 4.88888889,6.55555556 C5.09127064,6.55555556 5.2810148,6.59613651 5.44444444,6.66704072 L5.44444444,4.59527424 L5.44444444,4.20277826 C5.44444444,3.89604639 5.68226115,3.72079892 5.97108009,3.80994982 L7.66666667,4.33333333 L7.66666667,5.01944396 C7.66666667,5.32617583 7.42884996,5.50142331 7.14003102,5.4122724 L6,5.06037445 L6,5.06037445 Z" fill-rule="evenodd"></path></g></svg>